# xmcd
#
# Track frame offsets: 
#        150
#        11688
#        24197
#        35665
#        48171
#        59928
#        70267
#        82459
#        97335
#        109162
#        121852
#        133866
#        145274
#        156726
#        169000
#        183719
#        194223
#        205363
#        218168
#        231433
#        242802
#        254437
#        266306
#        277366
#        289417
#
# Disc length: 3992 seconds
#
# Revision: 2
# Processed by: cddbd v1.5.2PL0 Copyright (c) Steve Scherf et al.
# Submitted via: ExactAudioCopyFreeDBPlugin 1.0
#
DISCID=a50f9619
DTITLE=Various Artist - Rhythm 'n' Blues:  Nasty [Membran Music] [box
DTITLE=set]
DYEAR=2005
DGENRE=Risqué
TTITLE0=Roy Brown - Butcher Pete, Part I
TTITLE1=Roy Brown - Butcher Pete, Part II
TTITLE2=The Midnighters  - Sexy Ways
TTITLE3=Otis Blackwell - Daddy Rollin' Stone
TTITLE4=Annisteen Allen - My Baby Keeps Rollin'
TTITLE5=Shep Tingle - Let's Turn'em on Tonight
TTITLE6=Wynonie Harris - Sittin On It All The Time
TTITLE7=Jim Wynn - Butter for My Roll
TTITLE8=Big Maybelle - So Good to My Baby
TTITLE9=The Four Jacks - Sure Cure for the Blues
TTITLE10=The "5" Royales - My Baby Takes All of Me
TTITLE11=Jimmy McCracklin - I Wanna Make Love to You
TTITLE12=Johnny Otis - Ain't Nothin' Shakin'
TTITLE13=Todd Rhodes - Your Daddy's Doggin Around
TTITLE14=Dinah Washington - I Know How to Do It
TTITLE15=Sugar Chile Robinson - Vooey, Vooey Vay
TTITLE16=Crown Prince Waterford - Move Your Hand, Baby
TTITLE17=Mabel Scott - Wailin' Daddy
TTITLE18=Milt Trenier and His Solid Six - Squeeze Me
TTITLE19=Smiley Lewis - Real Gone Lover
TTITLE20=Bullmoose Jackson - Oh John
TTITLE21=Terry Timmons - Mr. Low Love
TTITLE22=Piney Brown - How About Rockin with Me
TTITLE23=Doc Sausage - Sausage Rock
TTITLE24=Dave Bartholomew - My Ding-A-Ling
EXTD=Various Artist - Rhythm'n'Blues Nasty
EXTT0=
EXTT1=
EXTT2=
EXTT3=
EXTT4=
EXTT5=
EXTT6=
EXTT7=
EXTT8=
EXTT9=
EXTT10=
EXTT11=
EXTT12=
EXTT13=
EXTT14=
EXTT15=
EXTT16=
EXTT17=
EXTT18=
EXTT19=
EXTT20=
EXTT21=
EXTT22=
EXTT23=
EXTT24=
PLAYORDER=
